<svg xmlns="http://www.w3.org/2000/svg" viewBox="0 0 126.61 126.61" width="60" height="60">
  <g fill="#F3BA2F">
    <polygon points="38.73 53.2 63.31 28.62 87.89 53.2 102.31 38.78 63.31 -0.22 24.31 38.78 38.73 53.2"/>
    <polygon points="0 63.31 14.42 48.89 28.84 63.31 14.42 77.73 0 63.31"/>
    <polygon points="38.73 73.41 63.31 97.99 87.89 73.41 102.32 87.82 63.31 126.83 24.3 87.83 24.28 87.82 38.73 73.41"/>
    <polygon points="97.76 63.31 112.18 48.89 126.6 63.31 112.18 77.73 97.76 63.31"/>
    <polygon points="77.83 63.3 63.31 48.78 52.59 59.5 51.35 60.74 48.78 63.31 63.31 77.83 77.83 63.31 77.84 63.3 77.83 63.3"/>
  </g>
</svg>
